<?xml version="1.0" encoding="utf-8"?>
<!-- Generator: Adobe Illustrator 16.0.0, SVG Export Plug-In . SVG Version: 6.00 Build 0)  -->
<!DOCTYPE svg PUBLIC "-//W3C//DTD SVG 1.1//EN" "http://www.w3.org/Graphics/SVG/1.1/DTD/svg11.dtd">
<svg version="1.1" id="Layer_1" xmlns="http://www.w3.org/2000/svg" xmlns:xlink="http://www.w3.org/1999/xlink" x="0px" y="0px"
	 width="612px" height="792px" viewBox="0 0 612 792" enable-background="new 0 0 612 792" xml:space="preserve">
<path fill="#2F8955" d="M277.719,405.371l0.508-0.508C278.045,405.021,277.877,405.189,277.719,405.371"/>
<path fill="#2F8955" d="M278.021,412.758l-0.132-0.131C277.932,412.672,277.975,412.715,278.021,412.758"/>
<path fill="#2F8955" d="M317.29,300.952L317.29,300.952h-68.794c-6.657,0-12.056,5.397-12.056,12.055
	c0,6.658,5.398,12.113,12.056,12.113h68.794c19.59,0.662,35.323,16.909,35.323,36.657c0,19.747-15.733,36.025-35.323,36.688
	c0,0.029-9.596,0.01-18.18-0.002l1.364-1.363l-0.006-0.006c1.995-1.999,1.994-5.237-0.003-7.234s-5.235-1.997-7.233-0.002v-0.001
	l-15.006,15.006l-0.508,0.508c-0.827,0.945-1.346,2.17-1.346,3.525c0,1.451,0.582,2.764,1.517,3.73l0.13,0.131l15.213,15.213
	l0.006-0.006c1.998,1.996,5.236,1.994,7.233-0.002c1.997-1.998,1.998-5.234,0.003-7.234l-0.622-0.621
	c8.386-0.01,17.438-0.021,17.438-0.002c32.851,0,59.575-26.726,59.575-59.576C376.865,327.678,350.141,300.952,317.29,300.952"/>
<path fill="#2F8955" d="M333.567,355.041l0.415,0.416C333.851,355.31,333.713,355.171,333.567,355.041"/>
<path fill="#2F8955" d="M333.845,362.41l-0.11,0.109C333.771,362.483,333.809,362.447,333.845,362.41"/>
<path fill="#2F8955" d="M333.982,355.456l-0.415-0.416l-15.233-15.233l-0.006,0.006c-1.999-1.995-5.237-1.994-7.234,0.003
	c-1.826,1.827-1.963,4.681-0.448,6.685h-13.883c-32.85,0-59.576,26.726-59.576,59.577v33.77c0,6.658,5.397,12.057,12.056,12.057
	c6.657,0,12.112-5.398,12.112-12.057v-33.77c0.661-19.59,16.908-35.324,36.656-35.324l13.323-0.317l-0.243,0.242l0.006,0.006
	c-1.994,1.998-1.993,5.235,0.003,7.233c1.997,1.997,5.235,1.997,7.233,0.002l0.001,0.001l15.4-15.402l0.109-0.109
	c0.896-0.922,1.45-2.175,1.45-3.561C335.294,357.541,334.789,356.361,333.982,355.456"/>
<path fill="#2F8955" d="M244.063,483.35v8.355h-4.888V467.99h9.251c1.781,0,3.348,0.326,4.699,0.979
	c1.353,0.65,2.392,1.576,3.119,2.777c0.728,1.199,1.091,2.564,1.091,4.096c0,2.324-0.794,4.156-2.385,5.496
	c-1.592,1.34-3.792,2.012-6.605,2.012H244.063z M244.063,479.393h4.363c1.292,0,2.278-0.305,2.956-0.912
	c0.681-0.607,1.02-1.479,1.02-2.607c0-1.16-0.344-2.1-1.027-2.816s-1.628-1.086-2.833-1.107h-4.479V479.393z"/>
<path fill="#2F8955" d="M270.304,483.023h-3.892v8.682h-4.888V467.99h8.813c2.801,0,4.962,0.625,6.48,1.873
	c1.521,1.25,2.281,3.016,2.281,5.295c0,1.617-0.35,2.967-1.05,4.047c-0.701,1.08-1.764,1.941-3.186,2.58l5.131,9.691v0.229h-5.244
	L270.304,483.023z M266.412,479.066h3.939c1.228,0,2.178-0.313,2.852-0.938c0.673-0.623,1.01-1.484,1.01-2.58
	c0-1.119-0.318-2-0.953-2.639c-0.635-0.641-1.609-0.961-2.923-0.961h-3.925V479.066z"/>
<polygon fill="#2F8955" points="297.913,481.428 288.531,481.428 288.531,487.781 299.542,487.781 299.542,491.705 283.646,491.705 
	283.646,467.99 299.51,467.99 299.51,471.949 288.531,471.949 288.531,477.6 297.913,477.6 "/>
<path fill="#2F8955" d="M317.269,483.35v8.355h-4.888V467.99h9.251c1.781,0,3.349,0.326,4.699,0.979
	c1.353,0.65,2.392,1.576,3.12,2.777c0.727,1.199,1.09,2.564,1.09,4.096c0,2.324-0.794,4.156-2.385,5.496
	c-1.592,1.34-3.792,2.012-6.605,2.012H317.269z M317.269,479.393h4.363c1.292,0,2.278-0.305,2.956-0.912
	c0.681-0.607,1.02-1.479,1.02-2.607c0-1.16-0.344-2.1-1.027-2.816c-0.683-0.717-1.628-1.086-2.833-1.107h-4.479V479.393z"/>
<path fill="#2F8955" d="M343.51,483.023h-3.893v8.682h-4.888V467.99h8.813c2.801,0,4.963,0.625,6.481,1.873
	c1.521,1.25,2.28,3.016,2.28,5.295c0,1.617-0.35,2.967-1.05,4.047s-1.763,1.941-3.186,2.58l5.132,9.691v0.229h-5.244L343.51,483.023
	z M339.617,479.066h3.94c1.227,0,2.177-0.313,2.851-0.938c0.673-0.623,1.01-1.484,1.01-2.58c0-1.119-0.318-2-0.952-2.639
	c-0.636-0.641-1.61-0.961-2.924-0.961h-3.925V479.066z"/>
<path fill="#2F8955" d="M376.329,480.385c0,2.334-0.412,4.381-1.236,6.141c-0.826,1.76-2.007,3.115-3.543,4.072
	c-1.535,0.955-3.298,1.432-5.285,1.432c-1.966,0-3.718-0.471-5.26-1.416c-1.544-0.945-2.736-2.293-3.583-4.047
	c-0.849-1.754-1.275-3.771-1.287-6.051v-1.172c0-2.334,0.42-4.391,1.262-6.166s2.031-3.139,3.567-4.088
	c1.535-0.949,3.293-1.424,5.269-1.424c1.975,0,3.733,0.475,5.268,1.424c1.536,0.949,2.726,2.313,3.567,4.088
	s1.262,3.824,1.262,6.148V480.385z M371.379,479.311c0-2.486-0.444-4.377-1.336-5.668s-2.161-1.938-3.811-1.938
	c-1.64,0-2.905,0.639-3.795,1.912c-0.891,1.275-1.34,3.148-1.352,5.611v1.156c0,2.422,0.443,4.301,1.336,5.635
	c0.891,1.336,2.171,2.004,3.843,2.004c1.64,0,2.898-0.643,3.778-1.93s1.323-3.162,1.336-5.627V479.311z"/>
<g opacity="0.4">
	<g>
		<defs>
			<rect id="SVGID_1_" x="312.896" y="378.981" width="3.861" height="0.425"/>
		</defs>
		<clipPath id="SVGID_2_">
			<use xlink:href="#SVGID_1_"  overflow="visible"/>
		</clipPath>
		<path clip-path="url(#SVGID_2_)" fill="#2F8955" d="M316.759,378.98l-3.861,0.092C314.144,379.546,315.53,379.516,316.759,378.98"
			/>
	</g>
</g>
<g opacity="0.2">
	<g>
		<defs>
			<rect id="SVGID_3_" x="236.441" y="300.953" width="140.425" height="128.508"/>
		</defs>
		<clipPath id="SVGID_4_">
			<use xlink:href="#SVGID_3_"  overflow="visible"/>
		</clipPath>
		<path clip-path="url(#SVGID_4_)" fill="#FFFFFF" d="M283.927,416.797l-0.132-0.131
			C283.838,416.711,283.881,416.754,283.927,416.797"/>
		<path clip-path="url(#SVGID_4_)" fill="#FFFFFF" d="M236.441,313.007c0-6.658,5.396-12.055,12.055-12.055h68.794
			c32.85,0,59.576,26.726,59.576,59.576c0,32.851-26.727,59.577-59.576,59.577c0-0.02-9.051-0.008-17.438,0.002l0.621,0.621
			c1.995,2,1.994,5.236-0.003,7.234c-1.997,1.996-5.233,1.998-7.231,0.002l-0.006,0.006c0,0-14.411-14.182-15.815-15.967
			c-0.896-1.139-1.01-2.512-1.01-2.512h45.231c13.655,0,43.682-10.344,43.682-47.344c0,0-1-48.632-48.364-48.632
			C267.101,313.516,236.441,313.007,236.441,313.007"/>
	</g>
</g>
<g opacity="0.2">
	<g>
		<defs>
			<rect id="SVGID_5_" x="237.172" y="355.041" width="98.122" height="96.863"/>
		</defs>
		<clipPath id="SVGID_6_">
			<use xlink:href="#SVGID_5_"  overflow="visible"/>
		</clipPath>
		<path clip-path="url(#SVGID_6_)" fill="#FFFFFF" d="M333.552,355.041l0.416,0.416C333.836,355.31,333.698,355.171,333.552,355.041
			"/>
		<path clip-path="url(#SVGID_6_)" fill="#FFFFFF" d="M333.829,362.41l-0.109,0.109C333.757,362.483,333.793,362.447,333.829,362.41
			"/>
		<path clip-path="url(#SVGID_6_)" fill="#FFFFFF" d="M300.031,358.849c-49.365,0-50.806,47.229-50.806,47.229v45.826
			c6.659,0,12.114-5.398,12.114-12.057v-33.77c0.661-19.59,16.909-35.324,36.656-35.324l13.322-0.317l-0.241,0.242l0.006,0.006
			c-1.995,1.998-1.995,5.235,0.003,7.233c1.997,1.997,5.234,1.997,7.232,0.002v0.001c0,0,14.681-14.725,15.663-15.66
			c1.313-1.247,1.313-3.412,1.313-3.412H300.031z"/>
	</g>
</g>
</svg>
